<mxfile host="app.diagrams.net" modified="2024-03-14T14:51:53.413Z" agent="Mozilla/5.0 (X11; Linux x86_64; rv:109.0) Gecko/20100101 Firefox/114.0" etag="NNl_uAWtYUgGTogN-y9K" version="24.0.6" type="github">
  <diagram name="Page-1" id="NGLgVdDskZZRFzG1q_jY">
    <mxGraphModel dx="1434" dy="795" grid="1" gridSize="10" guides="1" tooltips="1" connect="1" arrows="1" fold="1" page="1" pageScale="1" pageWidth="850" pageHeight="1100" math="0" shadow="0">
      <root>
        <mxCell id="0" />
        <mxCell id="1" parent="0" />
        <mxCell id="rWOWT373DdFlopB9v0LI-1" value="Cliente" style="swimlane;fontStyle=1;childLayout=stackLayout;horizontal=1;startSize=26;fillColor=none;horizontalStack=0;resizeParent=1;resizeParentMax=0;resizeLast=0;collapsible=1;marginBottom=0;html=1;" vertex="1" parent="1">
          <mxGeometry x="30.980000000000018" y="290" width="140" height="156" as="geometry" />
        </mxCell>
        <mxCell id="rWOWT373DdFlopB9v0LI-10" value="- Id: string" style="text;strokeColor=none;fillColor=none;align=left;verticalAlign=top;spacingLeft=4;spacingRight=4;overflow=hidden;rotatable=0;points=[[0,0.5],[1,0.5]];portConstraint=eastwest;whiteSpace=wrap;html=1;" vertex="1" parent="rWOWT373DdFlopB9v0LI-1">
          <mxGeometry y="26" width="140" height="26" as="geometry" />
        </mxCell>
        <mxCell id="rWOWT373DdFlopB9v0LI-2" value="- Nombre: string" style="text;strokeColor=none;fillColor=none;align=left;verticalAlign=top;spacingLeft=4;spacingRight=4;overflow=hidden;rotatable=0;points=[[0,0.5],[1,0.5]];portConstraint=eastwest;whiteSpace=wrap;html=1;" vertex="1" parent="rWOWT373DdFlopB9v0LI-1">
          <mxGeometry y="52" width="140" height="26" as="geometry" />
        </mxCell>
        <mxCell id="rWOWT373DdFlopB9v0LI-11" value="- Apellidos: string" style="text;strokeColor=none;fillColor=none;align=left;verticalAlign=top;spacingLeft=4;spacingRight=4;overflow=hidden;rotatable=0;points=[[0,0.5],[1,0.5]];portConstraint=eastwest;whiteSpace=wrap;html=1;" vertex="1" parent="rWOWT373DdFlopB9v0LI-1">
          <mxGeometry y="78" width="140" height="26" as="geometry" />
        </mxCell>
        <mxCell id="rWOWT373DdFlopB9v0LI-13" value="+ Buscar_libro: void" style="text;strokeColor=none;fillColor=none;align=left;verticalAlign=top;spacingLeft=4;spacingRight=4;overflow=hidden;rotatable=0;points=[[0,0.5],[1,0.5]];portConstraint=eastwest;whiteSpace=wrap;html=1;" vertex="1" parent="rWOWT373DdFlopB9v0LI-1">
          <mxGeometry y="104" width="140" height="26" as="geometry" />
        </mxCell>
        <mxCell id="rWOWT373DdFlopB9v0LI-14" value="+ Devolver_libro: void" style="text;strokeColor=none;fillColor=none;align=left;verticalAlign=top;spacingLeft=4;spacingRight=4;overflow=hidden;rotatable=0;points=[[0,0.5],[1,0.5]];portConstraint=eastwest;whiteSpace=wrap;html=1;" vertex="1" parent="rWOWT373DdFlopB9v0LI-1">
          <mxGeometry y="130" width="140" height="26" as="geometry" />
        </mxCell>
        <mxCell id="rWOWT373DdFlopB9v0LI-16" value="" style="endArrow=none;html=1;rounded=0;exitX=-0.007;exitY=-0.077;exitDx=0;exitDy=0;exitPerimeter=0;entryX=1.001;entryY=0.915;entryDx=0;entryDy=0;entryPerimeter=0;" edge="1" parent="rWOWT373DdFlopB9v0LI-1" source="rWOWT373DdFlopB9v0LI-13" target="rWOWT373DdFlopB9v0LI-11">
          <mxGeometry width="50" height="50" relative="1" as="geometry">
            <mxPoint x="229.01999999999998" y="130" as="sourcePoint" />
            <mxPoint x="279.02" y="80" as="targetPoint" />
          </mxGeometry>
        </mxCell>
        <mxCell id="rWOWT373DdFlopB9v0LI-7" value="Bibliotecario" style="swimlane;fontStyle=1;childLayout=stackLayout;horizontal=1;startSize=26;fillColor=none;horizontalStack=0;resizeParent=1;resizeParentMax=0;resizeLast=0;collapsible=1;marginBottom=0;html=1;" vertex="1" parent="1">
          <mxGeometry x="570" y="290" width="160" height="156" as="geometry" />
        </mxCell>
        <mxCell id="rWOWT373DdFlopB9v0LI-12" value="- Id: int" style="text;strokeColor=none;fillColor=none;align=left;verticalAlign=top;spacingLeft=4;spacingRight=4;overflow=hidden;rotatable=0;points=[[0,0.5],[1,0.5]];portConstraint=eastwest;whiteSpace=wrap;html=1;" vertex="1" parent="rWOWT373DdFlopB9v0LI-7">
          <mxGeometry y="26" width="160" height="26" as="geometry" />
        </mxCell>
        <mxCell id="rWOWT373DdFlopB9v0LI-8" value="- Nombre: string" style="text;strokeColor=none;fillColor=none;align=left;verticalAlign=top;spacingLeft=4;spacingRight=4;overflow=hidden;rotatable=0;points=[[0,0.5],[1,0.5]];portConstraint=eastwest;whiteSpace=wrap;html=1;" vertex="1" parent="rWOWT373DdFlopB9v0LI-7">
          <mxGeometry y="52" width="160" height="26" as="geometry" />
        </mxCell>
        <mxCell id="rWOWT373DdFlopB9v0LI-19" value="" style="endArrow=none;html=1;rounded=0;exitX=-0.007;exitY=-0.077;exitDx=0;exitDy=0;exitPerimeter=0;entryX=0.999;entryY=0.932;entryDx=0;entryDy=0;entryPerimeter=0;" edge="1" parent="rWOWT373DdFlopB9v0LI-7" target="rWOWT373DdFlopB9v0LI-8">
          <mxGeometry width="50" height="50" relative="1" as="geometry">
            <mxPoint y="76" as="sourcePoint" />
            <mxPoint x="141" y="78" as="targetPoint" />
          </mxGeometry>
        </mxCell>
        <mxCell id="rWOWT373DdFlopB9v0LI-17" value="+ Buscar_libro: void" style="text;strokeColor=none;fillColor=none;align=left;verticalAlign=top;spacingLeft=4;spacingRight=4;overflow=hidden;rotatable=0;points=[[0,0.5],[1,0.5]];portConstraint=eastwest;whiteSpace=wrap;html=1;" vertex="1" parent="rWOWT373DdFlopB9v0LI-7">
          <mxGeometry y="78" width="160" height="26" as="geometry" />
        </mxCell>
        <mxCell id="rWOWT373DdFlopB9v0LI-18" value="+ Prestar_libro: void" style="text;strokeColor=none;fillColor=none;align=left;verticalAlign=top;spacingLeft=4;spacingRight=4;overflow=hidden;rotatable=0;points=[[0,0.5],[1,0.5]];portConstraint=eastwest;whiteSpace=wrap;html=1;" vertex="1" parent="rWOWT373DdFlopB9v0LI-7">
          <mxGeometry y="104" width="160" height="26" as="geometry" />
        </mxCell>
        <mxCell id="rWOWT373DdFlopB9v0LI-20" value="+ Actualizar_catalogo: void" style="text;strokeColor=none;fillColor=none;align=left;verticalAlign=top;spacingLeft=4;spacingRight=4;overflow=hidden;rotatable=0;points=[[0,0.5],[1,0.5]];portConstraint=eastwest;whiteSpace=wrap;html=1;" vertex="1" parent="rWOWT373DdFlopB9v0LI-7">
          <mxGeometry y="130" width="160" height="26" as="geometry" />
        </mxCell>
        <mxCell id="rWOWT373DdFlopB9v0LI-21" value="Libro" style="swimlane;fontStyle=1;childLayout=stackLayout;horizontal=1;startSize=26;fillColor=none;horizontalStack=0;resizeParent=1;resizeParentMax=0;resizeLast=0;collapsible=1;marginBottom=0;html=1;" vertex="1" parent="1">
          <mxGeometry x="300" y="290" width="140" height="156" as="geometry" />
        </mxCell>
        <mxCell id="rWOWT373DdFlopB9v0LI-22" value="- Id: string" style="text;strokeColor=none;fillColor=none;align=left;verticalAlign=top;spacingLeft=4;spacingRight=4;overflow=hidden;rotatable=0;points=[[0,0.5],[1,0.5]];portConstraint=eastwest;whiteSpace=wrap;html=1;" vertex="1" parent="rWOWT373DdFlopB9v0LI-21">
          <mxGeometry y="26" width="140" height="26" as="geometry" />
        </mxCell>
        <mxCell id="rWOWT373DdFlopB9v0LI-23" value="- Nombre: string" style="text;strokeColor=none;fillColor=none;align=left;verticalAlign=top;spacingLeft=4;spacingRight=4;overflow=hidden;rotatable=0;points=[[0,0.5],[1,0.5]];portConstraint=eastwest;whiteSpace=wrap;html=1;" vertex="1" parent="rWOWT373DdFlopB9v0LI-21">
          <mxGeometry y="52" width="140" height="26" as="geometry" />
        </mxCell>
        <mxCell id="rWOWT373DdFlopB9v0LI-24" value="- Genero: string" style="text;strokeColor=none;fillColor=none;align=left;verticalAlign=top;spacingLeft=4;spacingRight=4;overflow=hidden;rotatable=0;points=[[0,0.5],[1,0.5]];portConstraint=eastwest;whiteSpace=wrap;html=1;" vertex="1" parent="rWOWT373DdFlopB9v0LI-21">
          <mxGeometry y="78" width="140" height="26" as="geometry" />
        </mxCell>
        <mxCell id="rWOWT373DdFlopB9v0LI-25" value="+ Buscar_libro: void" style="text;strokeColor=none;fillColor=none;align=left;verticalAlign=top;spacingLeft=4;spacingRight=4;overflow=hidden;rotatable=0;points=[[0,0.5],[1,0.5]];portConstraint=eastwest;whiteSpace=wrap;html=1;" vertex="1" parent="rWOWT373DdFlopB9v0LI-21">
          <mxGeometry y="104" width="140" height="26" as="geometry" />
        </mxCell>
        <mxCell id="rWOWT373DdFlopB9v0LI-26" value="+ Devolver_libro: void" style="text;strokeColor=none;fillColor=none;align=left;verticalAlign=top;spacingLeft=4;spacingRight=4;overflow=hidden;rotatable=0;points=[[0,0.5],[1,0.5]];portConstraint=eastwest;whiteSpace=wrap;html=1;" vertex="1" parent="rWOWT373DdFlopB9v0LI-21">
          <mxGeometry y="130" width="140" height="26" as="geometry" />
        </mxCell>
        <mxCell id="rWOWT373DdFlopB9v0LI-27" value="" style="endArrow=none;html=1;rounded=0;exitX=-0.007;exitY=-0.077;exitDx=0;exitDy=0;exitPerimeter=0;entryX=1.001;entryY=0.915;entryDx=0;entryDy=0;entryPerimeter=0;" edge="1" parent="rWOWT373DdFlopB9v0LI-21" source="rWOWT373DdFlopB9v0LI-25" target="rWOWT373DdFlopB9v0LI-24">
          <mxGeometry width="50" height="50" relative="1" as="geometry">
            <mxPoint x="229.01999999999998" y="130" as="sourcePoint" />
            <mxPoint x="279.02" y="80" as="targetPoint" />
          </mxGeometry>
        </mxCell>
        <mxCell id="rWOWT373DdFlopB9v0LI-30" value="1..N" style="text;html=1;align=center;verticalAlign=middle;resizable=0;points=[];autosize=1;strokeColor=none;fillColor=none;" vertex="1" parent="1">
          <mxGeometry x="246" y="330" width="50" height="30" as="geometry" />
        </mxCell>
        <mxCell id="rWOWT373DdFlopB9v0LI-31" value="1" style="text;html=1;align=center;verticalAlign=middle;resizable=0;points=[];autosize=1;strokeColor=none;fillColor=none;" vertex="1" parent="1">
          <mxGeometry x="176.98" y="330" width="30" height="30" as="geometry" />
        </mxCell>
        <mxCell id="rWOWT373DdFlopB9v0LI-32" value="" style="endArrow=none;startArrow=diamondThin;endFill=0;startFill=1;html=1;verticalAlign=bottom;labelBackgroundColor=none;strokeWidth=1;startSize=8;endSize=8;rounded=0;exitX=0;exitY=0.5;exitDx=0;exitDy=0;entryX=1;entryY=0.5;entryDx=0;entryDy=0;" edge="1" parent="1" source="rWOWT373DdFlopB9v0LI-23" target="rWOWT373DdFlopB9v0LI-2">
          <mxGeometry width="160" relative="1" as="geometry">
            <mxPoint x="220" y="400" as="sourcePoint" />
            <mxPoint x="380" y="400" as="targetPoint" />
          </mxGeometry>
        </mxCell>
        <mxCell id="rWOWT373DdFlopB9v0LI-33" value="" style="endArrow=none;startArrow=diamondThin;endFill=0;startFill=1;html=1;verticalAlign=bottom;labelBackgroundColor=none;strokeWidth=1;startSize=8;endSize=8;rounded=0;exitX=1;exitY=0.5;exitDx=0;exitDy=0;entryX=0;entryY=0.5;entryDx=0;entryDy=0;exitPerimeter=0;" edge="1" parent="1" source="rWOWT373DdFlopB9v0LI-23" target="rWOWT373DdFlopB9v0LI-8">
          <mxGeometry width="160" relative="1" as="geometry">
            <mxPoint x="310" y="365" as="sourcePoint" />
            <mxPoint x="181" y="365" as="targetPoint" />
          </mxGeometry>
        </mxCell>
        <mxCell id="rWOWT373DdFlopB9v0LI-34" value="1" style="text;html=1;align=center;verticalAlign=middle;resizable=0;points=[];autosize=1;strokeColor=none;fillColor=none;" vertex="1" parent="1">
          <mxGeometry x="529.02" y="330" width="30" height="30" as="geometry" />
        </mxCell>
        <mxCell id="rWOWT373DdFlopB9v0LI-35" value="1..N" style="text;html=1;align=center;verticalAlign=middle;resizable=0;points=[];autosize=1;strokeColor=none;fillColor=none;" vertex="1" parent="1">
          <mxGeometry x="440" y="330" width="50" height="30" as="geometry" />
        </mxCell>
      </root>
    </mxGraphModel>
  </diagram>
</mxfile>
